<svg xmlns="http://www.w3.org/2000/svg" viewBox="0 0 294.84 330"><defs><style>.cls-1{fill:#fff;fill-rule:evenodd;}</style></defs><title>events-calendar-icon</title><g id="Layer_2" data-name="Layer 2"><g id="Layer_1-2" data-name="Layer 1"><path class="cls-1" d="M200.39,34.93c0-7.77-.09-15.55,0-23.32.11-7.52,4-11.36,11.32-11.55,8.94-.23,13.44,3,13.6,10.9q.5,24.39,0,48.8c-.15,7.6-4.75,10.91-13.25,10.77-7.47-.12-11.51-3.8-11.71-11.21-.22-8.13,0-16.27,0-24.4Z"/><path class="cls-1" d="M80.93,35.26c0,8,.06,15.91,0,23.87-.08,7.48-4.18,11.31-12,11.42-8.38.11-12.87-3.46-13-11.08q-.3-24.13,0-48.27C56,3.38,60.52-.11,69.33,0c7.31.11,11.43,4.08,11.53,11.36.11,8,0,15.91,0,23.87Z"/><path class="cls-1" d="M177,35.28c0,8.13.17,16.27,0,24.4-.2,7.68-4.33,11-13,10.86-7.46-.1-11.69-3.92-11.74-11.17q-.19-24.12,0-48.24C152.37,3.43,156.62,0,165.1,0c7.8.07,11.88,3.86,12,11.38.11,8,0,15.91,0,23.86Z"/><path class="cls-1" d="M104.09,34.64c0-7.59-.09-15.19,0-22.78.12-8.51,4.31-12,13.82-11.86C125.14.14,129,4.56,129,12.38c0,15.18,0,30.35,0,45.53,0,8.8-3.74,12.57-12.43,12.62S104.16,66.7,104.11,58C104.06,50.19,104.1,42.42,104.09,34.64Z"/><path class="cls-1" d="M77.83,170.63H39.57V132.38H77.83Z"/><path class="cls-1" d="M94.21,132.28h38.26v38.25H94.21Z"/><path class="cls-1" d="M187.25,132.37v38.17H148.9V132.37Z"/><path class="cls-1" d="M39.62,185H77.77v38.34H39.62Z"/><path class="cls-1" d="M132.46,223.36H94.22V185.11h38.24Z"/><path class="cls-1" d="M148.8,223.24V185.12h38.35v38.12Z"/><path class="cls-1" d="M77.88,237.8v38.27H39.61V237.8Z"/><path class="cls-1" d="M132.53,237.85v38.21H94.18V237.85Z"/><path class="cls-1" d="M203.55,132.29h38.23V170.5H203.55Z"/><path class="cls-1" d="M169.4,270.66a65.66,65.66,0,0,1,8.84-33H149v38.36h20.68C169.49,274.28,169.4,272.48,169.4,270.66Z"/><path class="cls-1" d="M235.49,204.57c2.11,0,4.2.11,6.26.3V185.05H203.5v27.81A65.66,65.66,0,0,1,235.49,204.57Z"/><path class="cls-1" d="M235.49,211.31a59.35,59.35,0,1,0,59.35,59.35A59.35,59.35,0,0,0,235.49,211.31Zm0,104.17a44.82,44.82,0,1,1,44.82-44.82A44.82,44.82,0,0,1,235.49,315.48Z"/><path class="cls-1" d="M207.26,259.27c4.86,0,9.18-.2,13.48,0,.73,0,1.65,1.31,2.07,2.17,2.35,4.76,4.58,9.58,7.08,14.89.79-1.39,1.36-2.36,1.9-3.37,5.26-9.84,10.56-19.65,15.71-29.54a3.89,3.89,0,0,1,4.14-2.43c3.8.15,7.61,0,12.06,0l-34.56,64.69Z"/><path class="cls-1" d="M177.44,302.22H105.62c-24.61,0-49.22,0-73.83,0-11.88,0-17-5.17-17-17q0-82.46,0-164.92V115.5H266.53v10.61q0,43.11,0,86.23a66.41,66.41,0,0,1,14.79,10.78q0-77.63,0-155.26c0-2,.06-4-.06-6-.83-14.7-11.44-25.78-25.87-26.5-7.7-.38-15.44-.11-23.28-.08,0,8.29-.06,16.5-.22,24.6-.1,5.16-2.18,17.17-19.27,17.17H212C201,76.88,194.18,70.32,193.9,59.5c-.15-5.77-.12-11.59-.08-17.21q0-3.3,0-6.59H183.63v6.1h-.06c0,.28,0,.57,0,.85,0,5.62.07,11.43-.08,17.2a19.93,19.93,0,0,1-2.38,9.31c-2.18,3.8-6.24,7.07-13.66,7.77a19.67,19.67,0,0,1-5.39,0c-10-.84-16.24-7.42-16.32-17.55-.06-8.27-.09-16.15-.09-23.78H135.53c0,1.27,0,2.54,0,3.81q0,9.23,0,18.46c0,11-5.07,17.38-14.71,18.82a22.71,22.71,0,0,1-10.19-.3c-8.41-1.91-13-8.28-13.07-18.43,0-5.13,0-10.27,0-15.4q0-3.56,0-7.11H87.46q0,3.5,0,7c0,5.47,0,11.12,0,16.7-.11,11-7,17.72-18.46,17.87H68.5c-11.82,0-19-6.55-19.1-17.52-.1-7.94-.15-15.82-.15-23.59-9.59-.1-18.88-1-27.87.28C8.57,38,0,49.75,0,63.2Q0,175.42,0,287.65c0,17.65,11.13,28.83,28.81,28.86,26.08,0,52.16-.12,78.24-.11q40.44,0,80.88.08A66.39,66.39,0,0,1,177.44,302.22Z"/></g></g></svg>