<svg xmlns="http://www.w3.org/2000/svg" viewBox="0 0 304.84 265.89"><defs><style>.cls-1{fill:#fff;}</style></defs><title>group-social</title><g id="Layer_2" data-name="Layer 2"><g id="Layer_1-2" data-name="Layer 1"><polygon class="cls-1" points="122.59 75.77 121.74 72.49 118.28 75.39 122.59 75.77"/><polygon class="cls-1" points="115.61 48.79 101.16 60.95 98.21 67.45 116.47 52.09 115.61 48.79"/><polygon class="cls-1" points="107.06 74.43 119.53 63.94 118.67 60.64 102.73 74.05 107.06 74.43"/><polygon class="cls-1" points="114.84 75.1 121.06 69.87 120.21 66.56 110.5 74.73 114.84 75.1"/><polygon class="cls-1" points="118 58.02 117.14 54.71 95.87 72.6 95.5 73.43 99.28 73.75 118 58.02"/><polygon class="cls-1" points="108.77 44.14 113.4 40.24 112.36 36.22 108.77 44.14"/><polygon class="cls-1" points="114.08 42.87 106.43 49.3 103.49 55.8 114.93 46.17 114.08 42.87"/><path class="cls-1" d="M93.3,77.79,124,80.44a1.49,1.49,0,1,0,.26-3L93.56,74.82a1.49,1.49,0,1,0-.25,3Z"/><path class="cls-1" d="M124.28,86.24a16.12,16.12,0,0,0-.2-4.19L93,79.36a16.15,16.15,0,1,0,31.29,6.88Z"/><polygon class="cls-1" points="108.64 38.43 112.36 36.19 115.64 39.04 114.66 34.81 118.38 32.56 114.05 32.19 113.07 27.96 111.38 31.96 107.05 31.59 110.33 34.44 108.64 38.43"/><path class="cls-1" d="M176.83,147.74c11.75-4.67,30.44-17.4,36-51.64H216a15.76,15.76,0,1,0,5.43-10.53V50.65a2.75,2.75,0,0,0-2.75-2.75H196.79A2.76,2.76,0,0,0,194,50.65V93.35a2.76,2.76,0,0,0,2.76,2.75h4c-4.81,26.2-18,36.29-26.76,40.14H148.71c-4.69-.44-18.24-1-26.62,6a44.64,44.64,0,0,1,9.66,7.79,25.77,25.77,0,0,1,9-2.06v49.46h.05v61a7.41,7.41,0,0,0,14.82,0v-61H162v61a7.41,7.41,0,1,0,14.82,0v-61h.05Zm30.5-95.59a3,3,0,1,1-3,3A3,3,0,0,1,207.33,52.16Z"/><polygon class="cls-1" points="164.56 99.77 162.09 103.55 166.32 102.67 164.56 99.77"/><polygon class="cls-1" points="141.52 94.64 140.57 101.71 153.63 81.75 151.87 78.84 141.52 94.64"/><polygon class="cls-1" points="146.8 106.74 151.06 105.85 159.98 92.22 158.21 89.3 146.8 106.74"/><polygon class="cls-1" points="154.44 105.14 158.7 104.25 163.15 97.45 161.38 94.53 154.44 105.14"/><polygon class="cls-1" points="139.82 107.32 139.7 108.22 143.42 107.44 156.81 86.98 155.03 84.07 139.82 107.32"/><polygon class="cls-1" points="143.97 76.36 147.29 71.29 145.13 67.74 143.97 76.36"/><polygon class="cls-1" points="143.22 81.97 142.28 89.03 150.46 76.52 148.7 73.61 143.22 81.97"/><path class="cls-1" d="M137.08,111.88a1.5,1.5,0,0,0,1.77,1.15l30.17-6.3a1.49,1.49,0,1,0-.61-2.92l-30.17,6.3A1.5,1.5,0,0,0,137.08,111.88Z"/><path class="cls-1" d="M158.42,131.33a16.1,16.1,0,0,0,11.12-23.08L139,114.63a15.86,15.86,0,0,0,.3,4.19A16.16,16.16,0,0,0,158.42,131.33Z"/><polygon class="cls-1" points="145.6 63.39 143.44 59.62 142.97 63.94 138.72 64.83 142.68 66.61 142.21 70.93 145.13 67.71 149.09 69.49 146.93 65.72 149.85 62.5 145.6 63.39"/><circle class="cls-1" cx="207.33" cy="55.11" r="1.57"/><path class="cls-1" d="M94.85,147.67C105.7,148.92,124,153.75,128.1,172a5.72,5.72,0,0,0,5.57,4.45,6,6,0,0,0,1.27-.14,5.72,5.72,0,0,0,4.31-6.84c-5.33-23.53-27.67-31.65-44-33.29L67.89,127c-7.29-6.63-17.17-21.41-11.21-50.66a5.72,5.72,0,0,0-11.2-2.28c-7.31,35.88,6.64,54.41,16.37,62.62l-.07.22L24.62,190.6,39.77,196,2.3,230.52A7.14,7.14,0,0,0,12,241l43-39.64,8.08,2.87c-1.62,8.19-6,31.79-6.62,52.89a7.14,7.14,0,0,0,6.92,7.36h.23a7.15,7.15,0,0,0,7.14-6.92c.57-18.29,4.2-39.25,6-48.5L95,215.6l-.34-67.4Z"/><circle class="cls-1" cx="86.87" cy="113.77" r="15.16" transform="translate(-10.72 9.05) rotate(-5.62)"/><path class="cls-1" d="M179.35,200h-.05v2.46a7.4,7.4,0,0,0,6-7.26V146.33a52.79,52.79,0,0,1-5.93,3.09Z"/><path class="cls-1" d="M170.41,101.69a3.92,3.92,0,0,1,1.58,5.88,18.29,18.29,0,0,1-1.58,18.62v7.54h3.11c5.63-2.58,12.21-7.48,17.42-16.64-7.59-8.25-14.58-20.38-18.59-38.31a8.38,8.38,0,0,1,.86-5.86,39,39,0,0,1-12.67-9.22,89.16,89.16,0,0,1-2.15,13.88,50.69,50.69,0,0,0,12,6.86Z"/><path class="cls-1" d="M141.31,55.88l.46-4.24L144,55.52c0-.75,0-1.46,0-2.24a8.44,8.44,0,0,1,5.67-8.08,85.23,85.23,0,0,1-4.2-18.41,5.93,5.93,0,0,0-11.77,1.44A89.93,89.93,0,0,0,141.31,55.88Z"/><path class="cls-1" d="M191.52,72.93H188a8.5,8.5,0,0,1,.82,2.15,91,91,0,0,0,2.68,9.47Z"/><path class="cls-1" d="M238,21.63a6,6,0,0,0-6.6,5.16c-1.34,11-4.08,19.42-7.45,26v20c8.57-8.64,16.51-22.43,19.21-44.53A5.93,5.93,0,0,0,238,21.63Z"/><path class="cls-1" d="M191.63,141.89v53.28a7.39,7.39,0,0,0,14.5,2l.32-2.73V134.16h.05V129.1c-.79-.41-1.59-.85-2.4-1.33A58.59,58.59,0,0,1,191.63,141.89Z"/><path class="cls-1" d="M190,67.84a15.16,15.16,0,0,0,1.53-.31V50.65a5.28,5.28,0,0,1,5.28-5.27h5.76A15.7,15.7,0,1,0,190,67.84Z"/><path class="cls-1" d="M51.08,67.05a8.14,8.14,0,0,1,8,9.77,86.82,86.82,0,0,0-1.54,11.12A66,66,0,0,0,71,106.16a17.71,17.71,0,0,1,2.25-3.55,17.48,17.48,0,0,1,6.13-4.7c-6.85-6.3-13.62-16.43-18-32.82a5.92,5.92,0,0,0-11.61,2.08A8,8,0,0,1,51.08,67.05Z"/><path class="cls-1" d="M136.23,178.38c-.25.08-.5.19-.76.25a8.13,8.13,0,0,1-9.74-6.15,24.88,24.88,0,0,0-10.33-15.22c.1,8.71,4.91,19.58,14.54,32.88a5.93,5.93,0,0,0,9.6-7C138.31,181.49,137.24,179.91,136.23,178.38Z"/><path class="cls-1" d="M179.3,71.14a5.93,5.93,0,0,0-4.49,7.08c3.79,17,10.26,28.55,17.38,36.53a64.94,64.94,0,0,0,4.79-13c-.76-1.12-1.49-2.31-2.22-3.58a5.28,5.28,0,0,1-3.24-4.86V91.67a88.36,88.36,0,0,1-5.14-16A5.91,5.91,0,0,0,179.3,71.14Z"/><path class="cls-1" d="M303.17,88.79a5.92,5.92,0,0,0-8.38-.12,123.61,123.61,0,0,1-43.15,27.11l0-.19-33.16,3.26a37.41,37.41,0,0,1-8-3.77,72,72,0,0,1-5.08,10.55,50.93,50.93,0,0,0,11.09,4.83l-7.91,67.78,15.34-1.51v41.2a7.41,7.41,0,1,0,14.82,0V195.27l6.34-.62v43.28a7.41,7.41,0,1,0,14.82,0V193.19l14.06-1.38-20.68-64A134.36,134.36,0,0,0,303,97.17,5.93,5.93,0,0,0,303.17,88.79Z"/><path class="cls-1" d="M146.54,53.24c0,2.28,0,4.43-.12,6.52l.45.79,10.05-2.1L150,66.05l5.1,8.91-3.66-1.65.48.8h0l3.29,5.44A91.59,91.59,0,0,0,158.39,53a5.93,5.93,0,0,0-11.85.2Z"/><path class="cls-1" d="M102.62,105.93a17.55,17.55,0,0,1-7.11,23.14l.66,4.73a67.47,67.47,0,0,1,23.6,7.14,28.49,28.49,0,0,1,12.94-6.29l-2.91-20.89a50.69,50.69,0,0,0,4.92-3.21,4,4,0,0,1,2.49-2.75l1.3-18.6a39.41,39.41,0,0,1-13,13.55Z"/><path class="cls-1" d="M127.9,191.62c-2.3-3.18-4.3-6.21-6.07-9.14v46.17a7.41,7.41,0,1,0,14.82,0V194.89a8.38,8.38,0,0,1-8.74-3.27Z"/><path class="cls-1" d="M98.51,150.67l2.16,15.53v62.46a7.41,7.41,0,1,0,14.82,0V169.72a35.38,35.38,0,0,1-2.55-14A45.71,45.71,0,0,0,98.51,150.67Z"/><polygon class="cls-1" points="189.59 3.7 202.57 36.55 184.23 6.36 189.59 3.7"/><polygon class="cls-1" points="215.89 0.35 210.84 35.31 209.92 0 215.89 0.35"/><polygon class="cls-1" points="242.78 9.36 218.33 34.85 238.12 5.61 242.78 9.36"/><polygon class="cls-1" points="276.18 52.73 240.93 55.01 275.28 46.81 276.18 52.73"/><polygon class="cls-1" points="162.17 13.48 178.64 32.56 158.82 16.98 162.17 13.48"/><polygon class="cls-1" points="155.52 37.32 169.84 43.68 154.26 42 155.52 37.32"/><polygon class="cls-1" points="266.94 83.77 234.97 68.76 269.02 78.15 266.94 83.77"/></g></g></svg>