<svg id="Layer_2" data-name="Layer 2" xmlns="http://www.w3.org/2000/svg" viewBox="0 0 1000 1000"><defs><style>.cls-1{fill:#fff;}</style></defs><title>Artboard 1</title><path class="cls-1" d="M69.5,983.4l-38.2-38.2c-7.53-7.53-7.7-19.35-.38-25.94l226.83-204c6-5.38,15.51-4.77,21.65,1.37L298.1,735.3c6.15,6.15,6.75,15.67,1.37,21.65l-204,226.83C88.85,991.1,77,990.92,69.5,983.4Z"/><path class="cls-1" d="M535.09,65C314.57,65,135.17,244.4,135.17,464.91s179.4,399.91,399.91,399.91S935,685.43,935,464.91,755.6,65,535.09,65Zm0,738.3C348.5,803.3,196.7,651.5,196.7,464.91S348.5,126.53,535.09,126.53s338.39,151.8,338.39,338.39S721.67,803.3,535.09,803.3Z"/><path class="cls-1" d="M698,209.83,580.33,247.68a30.24,30.24,0,0,0-19.52,38l81.38,252.91a30.23,30.23,0,0,0,38,19.52L797.86,520.3a30.23,30.23,0,0,0,19.52-38L736,229.35A30.24,30.24,0,0,0,698,209.83Zm-73.28,46.85L667.18,243a7.45,7.45,0,0,1,4.56,14.18l-42.51,13.68a7.45,7.45,0,0,1-4.56-14.18ZM736.09,530A12.18,12.18,0,1,1,744,514.73,12.17,12.17,0,0,1,736.09,530Zm67.21-57.34-155.24,50L574.9,295.28l155.24-50Z"/><path class="cls-1" d="M616.2,641.6a249,249,0,0,0,18.5,21.68c51.39-20.84,50.52-27.83,50.52-27.83L679,621.59C667.63,625.74,645.6,633.39,616.2,641.6Zm-35.61-3.24a891.41,891.41,0,0,0,93.35-27.83l-10.51-23.22s-102.64,48.14-295.2,51.77l-1.61,23.76C449.23,665.26,527.81,651.14,580.6,638.36Zm-216,54.31L421.67,701,427.78,674c-13.87.82-28,1.28-42.36,1.28q-9.76,0-19.62-.3Zm75.79-19.58-6.7,29.67,11.75,1.71s18.16-10.9,44.5,40c0,0,10,34.52,55.41,25.43s34.51-42.7,44.51-63.58c9.39-19.64-10.11-20,32.82-38.11a252.93,252.93,0,0,1-19-23.18q-9.58,2.54-20,5.07C546.23,659.15,496,668.89,440.38,673.1Zm69,20.27a15.18,15.18,0,0,1,17.81,1A15.17,15.17,0,0,1,555,705.5c-1.86,8.17-21.37,25.45-21.37,25.45s-24.23-9.57-28.78-16.61A15.17,15.17,0,0,1,509.39,693.37Z"/><path class="cls-1" d="M477.52,290.85,254.67,491.68l60.16,66.75c6.53,7.24,15.73,8.73,23,2.2l196.73-177.3c7.24-6.53,9.68-18.5,3.15-25.74Zm27,42.56-99.59,89.75-7.53-8.36L497,325Zm16.95,18.8-156,140.59-5-5.57,156-140.59ZM228.9,463.09l1.92,2.13L453.67,264.38l-1.92-2.13c-6.53-7.24-18.55-5.92-25.8.61L229.23,440.16C222,446.69,222.37,455.84,228.9,463.09Z"/></svg>