<svg xmlns="http://www.w3.org/2000/svg" viewBox="0 0 145.44 117.7"><defs><style>.cls-1{fill:#fff;}</style></defs><title>photos-icon</title><g id="Layer_2" data-name="Layer 2"><g id="_ÎÓÈ_2" data-name="—ÎÓÈ_2"><polygon class="cls-1" points="67.3 74.37 74.91 70.45 79.56 68.05 87.59 63.91 79.96 49.11 75.54 40.54 68.31 26.51 66.77 23.52 64.59 19.28 63.06 16.33 52.37 21.84 45.31 25.48 38.37 29.05 16.33 40.41 40.85 88 49.74 83.42 56.68 79.84 60.92 77.66 67.3 74.37"/><path class="cls-1" d="M113.32,12.18,111.16,1.85,73.32,9.77,68.29,0,0,35.19,42.52,117.7,64.26,106.5l10.91-2.28,68.3,1.45,2-92.8Zm-8-1.42L105.6,12l1.58,7.56,1,4.62L119.4,78l1.86,8.91L89.37,93.56l21.43-11-2.46-4.77-3.83-7.42,8.22-1.72-9.31-44.51-1-4.62-.68-3.27-14.15,3-8.55,1.79-1-2L76.9,16.71l23-4.81ZM45.76,107.57,10.13,38.43l27.26-14,23.19-12L65,10.13l.64,1.23,2.84,5.5.74,1.44,2.18,4.24,4.3,8.35,4.42,8.57L96.88,71.92l2.91,5.64.88,1.71L74.43,92.79l-7.61,3.92-5.1,2.63-7.81,4ZM136.11,98l-28.27-.6,22.32-4.67-3-14.57,4.81.1,1.13-53.52-17.19-.36-1-4.62,22.85.48Z"/></g></g></svg>