<svg id="Layer_1" data-name="Layer 1" xmlns="http://www.w3.org/2000/svg" viewBox="0 0 288.01 149.33"><defs><style>.cls-1{fill:#fff;}</style></defs><title>Artboard 1</title><path class="cls-1" d="M93.89,50.87a20.74,20.74,0,0,1-.45-4.61V45.14a7.19,7.19,0,0,1,.15-1.41V41.35q0-7.14-7-7.14-.15,2.83-.22,4.91t-.07,3.57H86a4,4,0,0,1,.3,2.08q0,1.93-.59,2.08h.59V60.68l.74,4.16q6.69-1,6.69-8V55.63a6.76,6.76,0,0,1-.15-1.78V50.42Z"/><path class="cls-1" d="M0,0V149.33H288V0ZM59.84,84.62a1.85,1.85,0,0,1-.82.15,6.72,6.72,0,0,0-1.26.15,6.31,6.31,0,0,0-.3-1h2.23A1.16,1.16,0,0,0,59.84,84.62Zm-.74,2.23c.2-.2.45-.2.74,0Zm.74.74h-.3v-.45Zm-.22-35.09q-.08,2.08-.22,5.5l-14.72.15a2,2,0,0,1-.89-.15q-.15-1.48-.15-3.64t-.15-5c.59-.1,1.14-.17,1.64-.22s.94-.07,1.34-.07l-.3.3c.79,0,1.44,0,1.93-.07a9.19,9.19,0,0,0,1.34-.22q.3.3,4.91.3l-.74-.45a4.19,4.19,0,0,1,1.78-.15v-1a5.69,5.69,0,0,0,1.93-.15c-.4,0-.6-.1-.6-.3h.74V48a.6.6,0,0,0,.45.15,1.35,1.35,0,0,1,.59.15H55.83l2.83,1.19V50a.13.13,0,0,1,.15-.15,1.66,1.66,0,0,0,.74-.15A14.89,14.89,0,0,1,59.62,52.51ZM52.56,84.62l-1.49-.15a10.82,10.82,0,0,0-1.19-.22,3.26,3.26,0,0,0-1.19.07v-.59h1.78c.69,0,1.54.05,2.53.15,0,.1.12.22.37.37s.37.27.37.37Zm.89.59h-.3v-.3Zm-.89.89V86l.6.15Zm.6.45-.45.3v-.45A.62.62,0,0,1,53.15,86.56Zm-1.34-1.19v-.15l.74.15Zm.3,1.78h-.59v-.3Zm-.74-.59h-1v-.15Zm3.12-1.19a.86.86,0,0,0-.59.3l-.15-.3Zm-5.8,1h-.15v-.3Zm-.6-1.78H47.5v-.15Zm-2.23,3.12h-.15V87.6Zm-1.19-.15h-.45v-.3ZM48.54,44a11.07,11.07,0,0,1,3.12-.45l-.74.3.3.3q-.15.6-1.49.3A5.17,5.17,0,0,0,49.88,46l-.45-.89a3.61,3.61,0,0,0-1.12-.15,9.6,9.6,0,0,1-1.56-.15,6,6,0,0,0,2.53-.45A2.53,2.53,0,0,1,48.54,44ZM53,47.9a1.18,1.18,0,0,0-.74.15.6.6,0,0,1,.15-.45Zm-.45-1.34.45-.15-.3.45A.44.44,0,0,0,52.56,46.56Zm.15,2.68h-.59v-.3Zm-.89-4.76-.3-.3a.87.87,0,0,1,.59-.15Zm-1.19,2.68.89.15h-.89ZM50.33,46l.3-.59a.13.13,0,0,1,.15.15.6.6,0,0,0,.15.45Zm.74-.45v-.3l.3.3Zm.3,3,.45.3h-.45Zm.15-3.27v-.3l.3.3Zm.3-2.38-.45-.45c.59-.1.94-.1,1,0ZM47.2,48.19a.13.13,0,0,1,.15.15.6.6,0,0,0,.15.45h-.45l-.67-.3-.82-.3a.86.86,0,0,1-.15-.59A2.41,2.41,0,0,0,47.2,48.19Zm-.74-3v-.3l.15.3ZM45,44.77l.3-.59a4.9,4.9,0,0,1,1.19.3Zm.45,4h-.3v-.3ZM45,42.84a1.36,1.36,0,0,0-1-.89.61.61,0,0,1,.45-.15l.89.74Zm-.15.45a1,1,0,0,0-.3.74,2,2,0,0,1-.15-.89A.62.62,0,0,1,44.82,43.29Zm-1.34-1.64c0-.3.2-.5.59-.59ZM44.08,48l-.59.45v-.74Zm-.74-5.5v-.15l.15.15Zm10.11,3.12.59-.59c.2.2.3.35.3.45A1.56,1.56,0,0,0,53.45,45.67Zm1.19,1-.74.45A.69.69,0,0,1,54.64,46.71Zm1,0v-.3l.15.3Zm1.34,0v-.3l.3.3ZM58.21,48v-.3l.45.3Zm1.93,53.23q0,6.84-.15,14.13-.6,1-1.26,2.53t-1.41,3.57a24.07,24.07,0,0,0-2.45,2.08q-1.42,1.34-3.35,3-2.53.74-5.35,1.78a36,36,0,0,1-4.24.37q-2.31.07-5,.22L34.27,128q-14.43-3.57-14.42-25v-3q0-1.86.15-4.24t.22-4.39q.07-1.86.07-3H21a.62.62,0,0,0-.15-.45l.74-.3h-.74v-.45l3.57.45.89-.89-2.83.45a4.78,4.78,0,0,0-2.08-.74l-.3.45a6,6,0,0,1,.3-1.93,8,8,0,0,1-.3-1.78,18,18,0,0,1,.15-2,18.47,18.47,0,0,0,.15-2,2,2,0,0,0-.3-1.34l.59-.3a.62.62,0,0,0-.15-.45H20l-.3-17.84a.61.61,0,0,1,.45-.15q-.3-.15-.45-6.69a6.88,6.88,0,0,1,1.78.15v-.45a4.24,4.24,0,0,1-.59-.07l-1.19-.22a16.94,16.94,0,0,1-.15-2.08V48.19c.2-.2.35-.3.45-.3v-.74a5.66,5.66,0,0,1,1.12.45,4.17,4.17,0,0,0,1.26.45l1-1a10.75,10.75,0,0,1-3.87-1.49,3.7,3.7,0,0,1,.15-1.34l.89.3A2.68,2.68,0,0,0,21.92,44c.1.5.2.74.3.74a7.32,7.32,0,0,1,1.41-.15h1a.91.91,0,0,0-.19-.45h-.1a.07.07,0,0,1,.1,0c1.84,0,3,0,3.43.07a5.46,5.46,0,0,0-1.15-.37q-.75-.15-1.78-.3l.45-.6a3.7,3.7,0,0,0-1.64.45l.3.45h-.45v.3c-.3,0-.45.05-.45.15a8.1,8.1,0,0,0-.74-1.19,2.91,2.91,0,0,1-1,.74v-.59a5.51,5.51,0,0,0,.74-.3l.59-.3a3.08,3.08,0,0,1,.15-1.19,4.09,4.09,0,0,1-3.12.45l1.78-.45H19.55q0-11.45,5.35-17.25Q26.53,23.06,28,22.1a30.62,30.62,0,0,1,3-1.71q2.08-.15,5.13-.15t7.21-.15v.59a7.32,7.32,0,0,1,2.83-.45,7.67,7.67,0,0,1,6.54,3,.86.86,0,0,0-.59.3q5.05.6,6.69,8.77.3,1.93.52,4.83t.22,7.06A7.34,7.34,0,0,0,58.13,44a2.3,2.3,0,0,1-1-.15.85.85,0,0,1-.15-.59.61.61,0,0,1,.45-.15A8.71,8.71,0,0,0,56,42.69l-1.64-.3.74-.15a7.09,7.09,0,0,0-1.93-.45c.1,0,.25.1.45.3a19.54,19.54,0,0,0-.74,2.08l-.3-.3v.59l.6-.3a4.7,4.7,0,0,1,.89-.3,6.71,6.71,0,0,0-.05-1,1.38,1.38,0,0,0-.1-.16s.07,0,.1.16A1.89,1.89,0,0,1,54.34,44l.74-.59A1.29,1.29,0,0,1,56,43a.13.13,0,0,1,.15.15l-.89.74a.85.85,0,0,0,.15.59h4v.45a2.57,2.57,0,0,0-1,.15l1,.89-1.78.3-.74-.74q-2.08.75-2.08.59l-.3-1.34-2.08-.15-.3-1.19L53,42.1a1.29,1.29,0,0,0-1-.59,2.47,2.47,0,0,0-1.64.89.86.86,0,0,1-.59-.15v1.34a1.32,1.32,0,0,1-.59.15.13.13,0,0,0-.15.15v-.74a.87.87,0,0,1,.59-.15l-1-.59-.45.3.45.6a1.65,1.65,0,0,1-.74.15.13.13,0,0,0-.15.15,1.19,1.19,0,0,0-.15-.74,2.05,2.05,0,0,1-.89-.15.61.61,0,0,1-.15.45H46l.3-.45-.59-.3a5.83,5.83,0,0,0,2.38-.89l-.89-.45a.68.68,0,0,1,.39-.5l-.09-.09h.3a5.92,5.92,0,0,1,2.53,0l.3.6a.61.61,0,0,0,.15-.45q0-1.34-3-.89l-.15-.59-2.23-.74a2.2,2.2,0,0,0-.59,1,2.1,2.1,0,0,1,.89.15,1.65,1.65,0,0,1-.74.15.13.13,0,0,0-.15.15,2.09,2.09,0,0,1,.89-.15,6.85,6.85,0,0,0,1.34-.15l-.89,1a.86.86,0,0,1,.6.3.43.43,0,0,0-.3.15l.3.3a.86.86,0,0,1-.6.3,3.11,3.11,0,0,1-2.53-1.34.13.13,0,0,1,.15-.15,1.66,1.66,0,0,0,.74-.15l-.45-.74-.59.89v-.89h.3q0-.3-.45-.59l.74-.45a1.75,1.75,0,0,1-.89-1,31.25,31.25,0,0,0-1.34-4A5.28,5.28,0,0,0,40.36,33Q38.72,33,38,35.11A24.33,24.33,0,0,0,37.39,39a13.83,13.83,0,0,0-2.3.3,13.6,13.6,0,0,1-2.31.3c0,.59.45.94,1.34,1l.59-.3a4.5,4.5,0,0,0-1-.3,3.33,3.33,0,0,1,1-.15h1.12a12.48,12.48,0,0,0,1.71-.15,1.37,1.37,0,0,1-.34.71l.19,0-.33.09c-.61.51-1.78.64-3.53.36a1.17,1.17,0,0,0-.15.74,2.2,2.2,0,0,1-1.49-1H30.25a.61.61,0,0,0-.15.45l-1.64-.3v.3q.59.3,1.34.59t1.64.59a15.34,15.34,0,0,1,4.16.3c-.5,0-1,0-1.64.07s-1.29.13-2.08.22q-.89.3-.74.59a4.56,4.56,0,0,1,1.34.15,1.18,1.18,0,0,0-.15.74q-.75-.15-1.56-.22c-.55,0-1.07-.07-1.56-.07a10.29,10.29,0,0,0,4.16.89q.74,1.19,1.64,1a2.76,2.76,0,0,1-.74,1.64,2.47,2.47,0,0,0-1.78-2.08v.3l1.19.74-2.23-.89c-.4,0-.5.15-.3.45a5.34,5.34,0,0,1-.56.23,2.5,2.5,0,0,0,1.31.36,8.26,8.26,0,0,0,.3,1.93h1.19a16.61,16.61,0,0,1,1.93.15l-.45.3q2.82-.45,2.68-.45a.43.43,0,0,1-.3.15q.45,16.36.45,27.06h-.45v.45a.87.87,0,0,1,.6-.15,4.28,4.28,0,0,1,.07,1.34q-.08.6-.22,1.34l-1.19.74v-.74a1.19,1.19,0,0,1,.74-.15v-.89h-.45v.3a5.21,5.21,0,0,1-1.49.15q.45.3.45.45l-1-.3-.3.45a.6.6,0,0,1-.15-.45.13.13,0,0,0-.15-.15l.45-.45c-.59-.2-.94-.25-1-.15a.85.85,0,0,0,.15.59H32.33L31.44,80a4.81,4.81,0,0,1,.89-2.53c-.5-.1-.74-.2-.74-.3A3.59,3.59,0,0,0,31.14,79h-.3a1.17,1.17,0,0,1-.15-.74c-.5-.1-.74-.2-.74-.3q-1.19,1.78-1,2.38H30.1q1.63.89,2.08.74a1.31,1.31,0,0,1-.59.15.61.61,0,0,0-.45.15c-.34,0-.46,0-.42.1l.12,0,0,0,.33.13a.44.44,0,0,1,.15.3l-.3.3a2.32,2.32,0,0,0,.89-.59l1.19-.3a.86.86,0,0,0-.3.6l.45.45a1.35,1.35,0,0,0-.74.74.88.88,0,0,0,.89.15v.45q-2.53-.74-3-.45l.15.74h.89a16.21,16.21,0,0,1,1.78.15l-.45.45q.59,1.64,5.2,1.93l.45,25.58a2.69,2.69,0,0,0,2.83,2.23,2.83,2.83,0,0,0,2.83-2.23q0-4.16.07-10.11t.22-14h.74l-.59.59A6.45,6.45,0,0,0,47.65,88c0-.4-.5-.64-1.49-.74a12.23,12.23,0,0,1,2.68,0,2,2,0,0,0,1,.45l.3-.59a5.46,5.46,0,0,0,1.34.15,13.23,13.23,0,0,1,1.78.15,1.29,1.29,0,0,1-.45.89,3.71,3.71,0,0,0-1.64-.45,4,4,0,0,0-1.78.45v.45l5.8.3-1.64-.45q.74-1.19,5.2-1.19c-.2.3-.25.5-.15.6h1.49ZM19.84,78.83v-.59h.3v.59Zm2.08-31.08V47.6l.3.15Zm-2.23-4.16V42.39l1,.3a1.56,1.56,0,0,1,.89-.15,1.36,1.36,0,0,1,.89,0Zm37,.45a.61.61,0,0,0-.45.15v-.3A.61.61,0,0,1,56.72,44ZM46.46,39.27h-.3v-.15Zm-8.92.3h-.59v-.3Zm-1,8.18.45.3H36.5Zm-.3-.15c-.1-.1-.15-.4-.15-.89a.71.71,0,0,1,.74.59ZM36.5,46a1.64,1.64,0,0,1-.15-.74,2.54,2.54,0,0,1,.15-1l.59,1.19a.61.61,0,0,1,.45-.15V46Zm-.74-2.38v-.74l1.78.45Zm-1.12,1a3.42,3.42,0,0,0-.82-.52.6.6,0,0,1,.15-.45l1.49.59-.45.74Zm.37,1h-.3v-.3Zm-1.34-2.23v-.15l.59.15Zm1.78,1.93v-.3l.45.3Zm.3,1.34-.3.3L35.6,46A.87.87,0,0,1,35.75,46.56Zm1.19-4.61v-.59a.61.61,0,0,1,.45-.15,1.19,1.19,0,0,1,.15.74Zm-5.5-.3H31v-.3ZM31,40.91v-.15l.15.15Zm2.23,2.53a1.17,1.17,0,0,0-.15.74l-.45-.59A.87.87,0,0,1,33.23,43.43ZM34,47.75c0-.1.1.15.3.74h-.45l-.45-.74Zm-.6-.6v-.3l.3.3Zm-.74.15h-.45a.62.62,0,0,0-.15-.45Q32.33,46.56,32.63,47.3ZM36.2,83.58a.44.44,0,0,1,.3.15l-.3.3Zm-.45-4.31a.61.61,0,0,1,.15-.45c0,.1.1.25.3.45Zm.45,3.27a.61.61,0,0,1,.45-.15.61.61,0,0,0-.15.45Zm0-1.78v-.59h.74a1.82,1.82,0,0,0-.3.74A.6.6,0,0,1,36.2,80.76Zm.74,2.83V83h.89l-.45.74A.6.6,0,0,1,36.94,83.58Zm.45,1.19a.61.61,0,0,0-.45.15Q37.39,84.48,37.39,84.77Zm-.15-2.23v-.15l.3.15Zm.3-3v-.3l.3.3Zm-3,.59a.61.61,0,0,1,.45.15v.59ZM35,81.8h-.45v-.15Zm0-.59.3.15H35Zm-1,1.64a.87.87,0,0,1,.59-.15,6,6,0,0,1-.15,1.64.87.87,0,0,0-.59.15l.59-1.19Zm-.3-1.93h-.74q0-.15.45-.45Zm-3.42-1.64h-.89V79Zm70.63,47.58v-.3l.15.3Zm8.18,0h-7.44l.3-.3a5,5,0,0,0-2.53-1.19.87.87,0,0,0-.59.15l1.64.3a3.08,3.08,0,0,0-.15,1.19l-.45-.45q-3.12.74-3.87-2.23.59-.3,1-.45c.25-.1.47-.2.67-.3a4,4,0,0,0-2.08-.3,4,4,0,0,1,0-2.23.13.13,0,0,1,.15-.15,1.32,1.32,0,0,0,.59-.15l-1.49-1a35.29,35.29,0,0,1-.15-7.58l-.45-.3L93.6,81.35Q92,76,86.76,76.15l.3,35.69a.61.61,0,0,0-.45.15,18.24,18.24,0,0,1,.3,3.2q.15,2.9.3,8.25a1.18,1.18,0,0,0-.15.74L85.86,124q0,1.49,1.34,1.49a1.54,1.54,0,0,0,.15,1.49,19.34,19.34,0,0,1-3.72-.15,1.8,1.8,0,0,1,.3-.74,1.18,1.18,0,0,0-.74.15,2.53,2.53,0,0,0-.15,1l-3.87-.45a2,2,0,0,1,1.19-.45,1.79,1.79,0,0,1-.45-.89h.59a.89.89,0,0,0-.15-.89l1.93-.59v-.45L81,124l.3-1.19a1.88,1.88,0,0,0-1,0c-.3.1-.35.4-.15.89l-1,.74a4,4,0,0,1,.15,1.78l-1.73.36.24.24h-.3v-.23l-.15,0v.2l-.17-.17a14,14,0,0,1-3.4.32.86.86,0,0,1-.15-.59,12.79,12.79,0,0,1-3.87.89,9.29,9.29,0,0,1-.3-4l2.28-.3h-.2v-.45l.29.43,1-.14a.6.6,0,0,1,.15-.45l-1.78-.59v-1h.45c0,.2.25.4.74.59l.45-.45-.3-.59a5.48,5.48,0,0,1-.3-.74,1.44,1.44,0,0,0-1.34,1L70.7,120a2.17,2.17,0,0,1-.74,1,1.16,1.16,0,0,1,.3,1.34q-1,0-.74-2.68a.43.43,0,0,1,.3-.15h-.74a3,3,0,0,0,0-1.34,1.81,1.81,0,0,0,.74-.3l-.89-.89q.45-.45.15-1.64l.3-.59L70,115l-.89-.89q-.15-6.84-.22-12t-.07-8.55a3.45,3.45,0,0,1,.59-.89,1.19,1.19,0,0,0-.74-.15V89.83q0-1.48.15-3.42c.2-.2.35-.3.45-.3l-.45-.3-.89-63.49.59-.59.59.3,12-.45q4.61-.15,8,.07t5.43.52a25.82,25.82,0,0,1,5.25,1.57l.11-.09.45.3h0a26.66,26.66,0,0,1,5.83,3.56v.89a3.07,3.07,0,0,1,2.53,3.12,3.49,3.49,0,0,0-.89.59l-.45.45a1.93,1.93,0,0,0,1.49.89l-.3-.45a2.66,2.66,0,0,1,.74-.74l.74,1.64-.3.45a9.24,9.24,0,0,0,.59,1,3.81,3.81,0,0,1,.45.89l.09,9.67h.06v.45l-.06-.09.06,6.33v2.68A24.58,24.58,0,0,1,110.7,58q-2.08,8.33-13.09,11.9a8.84,8.84,0,0,0,1.41.45c.45.1.82.2,1.12.3q5.65,1.93,8,5.13t3.35,9.29q.3,15.32.52,24.09t.52,11.45a43.53,43.53,0,0,1,1.49,6.25Zm-22-2.53v.59h-.6a1.19,1.19,0,0,0,.22-.3A.81.81,0,0,1,87.05,124.33ZM69.21,123v-.3l.45.3Zm1.64-.3v-.45l.15.45Zm69.89,2.68a.43.43,0,0,0-.15.3.3.3,0,0,1-.07.22.58.58,0,0,0-.07.37,33.22,33.22,0,0,1-4.76.15q-4.46,0-13.09.15c-.69-.1-1-.84-1-2.23a18.49,18.49,0,0,1,.22-2.45,18.4,18.4,0,0,0,.22-2.45,4.75,4.75,0,0,0-.3-1.34l-.15-79a45.17,45.17,0,0,0,.15-8.92q-.15-3-.22-5.2t-.07-3.87T139.69,21c0-.3,0-.2.07.3s.12,1.44.22,2.83a6.92,6.92,0,0,1-.3,3,4.56,4.56,0,0,0-1.34.15,3.64,3.64,0,0,1,1.19.89l.15-.59v2.23a1.45,1.45,0,0,0-1,.3q.3.3,1,0v1.78a1.57,1.57,0,0,0-.89-.15,1.16,1.16,0,0,0,.15.74.13.13,0,0,1,.15-.15,1.65,1.65,0,0,0,.74-.15v2.23l-1.49-.45a1.82,1.82,0,0,0,.74.45,6.33,6.33,0,0,1,.74.3q0,2.53-.07,3.94a12.25,12.25,0,0,1-.22,2l.45.59a3.2,3.2,0,0,0-1,.59,2.44,2.44,0,0,0,1.19.15q-.3,4.76,0,12.49l.45,12.49a28.28,28.28,0,0,1-.07,4.54q-.22,2.45-.52,5.28l.59,19.18a1,1,0,0,0-.3.74q0,.3.07,3.79t.22,10.63q.15,3.42.15,7Zm50.71-26.91q-.15,6.4-.37,10.63a30.78,30.78,0,0,1-.82,6.32l-3.57,7-6.54,4.76a22.38,22.38,0,0,1-7.88,1.93v-.45l-1,.59h-3a13.87,13.87,0,0,0-2.23.15,44.66,44.66,0,0,1-9.37-3.57v-.45a1.35,1.35,0,0,0-.6-.15.6.6,0,0,1-.45-.15,21.86,21.86,0,0,1-2.3-2.83q-1.27-1.78-2.9-4.31a12.21,12.21,0,0,1-1-4.61l.74-.59a2.57,2.57,0,0,0-1,.15,8.68,8.68,0,0,1,.3-2.08.87.87,0,0,0-.59-.15l-.3-25.43h7.14v.45a8.47,8.47,0,0,1,4.31-.59q1.63.15,2.83.22c.79.05,1.44.07,1.93.07l.3,13.38-.6.59a1.19,1.19,0,0,1,.74.15q0,1.19-.22,3.42t-.22,3.42q0,6.1,3.87,7.44a5.34,5.34,0,0,0,4.91-2.38q.3-12.79-.89-19a9,9,0,0,1-.74-1.12q-.6-1-1.64-2.9L161.4,77.64q-.15-.3-3-3.42-2.68-2.82-2.38-3.72h.45q-1.93-.45-4.46-5.2a21.18,21.18,0,0,1-1.26-2.75q-.67-1.71-1.71-4.09l-.74-5.2q0-.89-.07-2.45t-.07-3.2q0-1.63-.07-3.2c-.05-1-.07-1.86-.07-2.45a27.27,27.27,0,0,1,.45-5.5h.89a2.2,2.2,0,0,1-.59-1.64,13.46,13.46,0,0,1,2.53-7.29l4.61-4.31q6.1-3.12,9.22-2.83a7.3,7.3,0,0,1,4-.89,36.64,36.64,0,0,1,10.41,2.08,25.85,25.85,0,0,0,2.3,1.64q1,.6,1.56.89a.86.86,0,0,0-.15.59H184a12,12,0,0,1,3.87,7.58,2.09,2.09,0,0,1,.89-.15c0,.1,0,.4.07.89s.12,1.19.22,2.08l.3,23.2q-1.93.15-5.87.07l-10.19-.22V46q0-4.38-.15-5.58l1.49-.3A3,3,0,0,1,173.3,40q-.45-4-1.71-5.43t-5.13-1.12l-.3.45a.74.74,0,0,0,.89,0,1.71,1.71,0,0,1-.59,1.19q-.45,4.76-.45,8.33a36.88,36.88,0,0,0,1.19,9.81l2.53,4q1.78,3,1.78,3.87a2.53,2.53,0,0,0,.74.3q.74,1,2.9,3.87T181,72.73q2.82,3.42,4.83,6.39a42.17,42.17,0,0,1,3.2,5.5q2.38,6.25,2.38,10a5.87,5.87,0,0,1-.15,1.78l.3,1.78a1.56,1.56,0,0,0-.89.15A1.17,1.17,0,0,0,191.44,98.45Zm25.72,26.91a.43.43,0,0,0-.15.3.3.3,0,0,1-.07.22.58.58,0,0,0-.07.37,33.22,33.22,0,0,1-4.76.15q-4.46,0-13.09.15c-.69-.1-1-.84-1-2.23a18.49,18.49,0,0,1,.22-2.45,18.4,18.4,0,0,0,.22-2.45,4.75,4.75,0,0,0-.3-1.34l-.15-79a45.17,45.17,0,0,0,.15-8.92q-.15-3-.22-5.2t-.07-3.87T216.12,21c0-.3,0-.2.07.3s.12,1.44.22,2.83a6.92,6.92,0,0,1-.3,3,4.56,4.56,0,0,0-1.34.15,3.64,3.64,0,0,1,1.19.89l.15-.59v2.23a1.45,1.45,0,0,0-1,.3q.3.3,1,0v1.78a1.57,1.57,0,0,0-.89-.15,1.16,1.16,0,0,0,.15.74.13.13,0,0,1,.15-.15,1.65,1.65,0,0,0,.74-.15v2.23l-1.49-.45a1.82,1.82,0,0,0,.74.45,6.33,6.33,0,0,1,.74.3q0,2.53-.07,3.94a12.25,12.25,0,0,1-.22,2l.45.59a3.2,3.2,0,0,0-1,.59,2.44,2.44,0,0,0,1.19.15q-.3,4.76,0,12.49L217,66.93a28.28,28.28,0,0,1-.07,4.54q-.22,2.45-.52,5.28L217,95.93a1,1,0,0,0-.3.74q0,.3.07,3.79t.22,10.63q.15,3.42.15,7Zm50.71-26.91q-.15,6.4-.37,10.63a30.78,30.78,0,0,1-.82,6.32l-3.57,7-6.54,4.76a22.38,22.38,0,0,1-7.88,1.93v-.45l-1,.59h-3a13.87,13.87,0,0,0-2.23.15,44.66,44.66,0,0,1-9.37-3.57v-.45a1.35,1.35,0,0,0-.6-.15.6.6,0,0,1-.45-.15,21.86,21.86,0,0,1-2.3-2.83q-1.27-1.78-2.9-4.31a12.21,12.21,0,0,1-1-4.61l.74-.59a2.57,2.57,0,0,0-1,.15,8.68,8.68,0,0,1,.3-2.08.87.87,0,0,0-.59-.15l-.3-25.43H232v.45a8.47,8.47,0,0,1,4.31-.59q1.63.15,2.83.22c.79.05,1.44.07,1.93.07l.3,13.38-.6.59a1.19,1.19,0,0,1,.74.15q0,1.19-.22,3.42t-.22,3.42q0,6.1,3.87,7.44a5.34,5.34,0,0,0,4.91-2.38q.3-12.79-.89-19a9,9,0,0,1-.74-1.12q-.6-1-1.64-2.9l-8.77-10.71q-.15-.3-3-3.42-2.68-2.82-2.38-3.72h.45q-1.93-.45-4.46-5.2a21.18,21.18,0,0,1-1.26-2.75q-.67-1.71-1.71-4.09l-.74-5.2q0-.89-.07-2.45t-.07-3.2q0-1.63-.07-3.2c-.05-1-.07-1.86-.07-2.45a27.27,27.27,0,0,1,.45-5.5h.89a2.2,2.2,0,0,1-.59-1.64,13.46,13.46,0,0,1,2.53-7.29l4.61-4.31q6.1-3.12,9.22-2.83a7.3,7.3,0,0,1,4-.89A36.64,36.64,0,0,1,256,21.58a25.85,25.85,0,0,0,2.3,1.64q1,.6,1.56.89a.86.86,0,0,0-.15.59h.74a12,12,0,0,1,3.87,7.58,2.09,2.09,0,0,1,.89-.15c0,.1,0,.4.07.89s.12,1.19.22,2.08l.3,23.2q-1.93.15-5.87.07l-10.19-.22V46q0-4.38-.15-5.58l1.49-.3a3,3,0,0,1-1.34-.15q-.45-4-1.71-5.43t-5.13-1.12l-.3.45a.74.74,0,0,0,.89,0,1.71,1.71,0,0,1-.59,1.19q-.45,4.76-.45,8.33a36.88,36.88,0,0,0,1.19,9.81l2.53,4q1.78,3,1.78,3.87a2.53,2.53,0,0,0,.74.3q.74,1,2.9,3.87t5.87,7.43q2.82,3.42,4.83,6.39a42.17,42.17,0,0,1,3.2,5.5q2.38,6.25,2.38,10a5.87,5.87,0,0,1-.15,1.78l.3,1.78a1.56,1.56,0,0,0-.89.15A1.17,1.17,0,0,0,267.87,98.45Z"/></svg>