<svg xmlns="http://www.w3.org/2000/svg" viewBox="0 0 516.12 378.21"><defs><style>.cls-1{fill:#fff;}</style></defs><title>ticket-icon</title><g id="Layer_2" data-name="Layer 2"><g id="Layer_1-2" data-name="Layer 1"><path class="cls-1" d="M427.76,0A17.36,17.36,0,0,0,421,1.35L363.34,25.49c.09.17.17.34.25.51a7.62,7.62,0,1,1-14,5.88c-.07-.17-.14-.35-.2-.54L64.83,150.42H254.32l93-38.93,16.25,38.83h36a7.65,7.65,0,0,1,4.54-7.84,7.8,7.8,0,0,1,10.1,4.42,8.3,8.3,0,0,1,.63,3.42h87.28l-6.28-15a50.06,50.06,0,0,1-32.93-78.69l-19.26-46A17.23,17.23,0,0,0,427.76,0ZM364.9,41.18a8,8,0,0,1,7.12,5,7.61,7.61,0,1,1-10.09-4.41,7.3,7.3,0,0,1,3-.57Zm8.43,20.15a8,8,0,0,1,7.12,5,7.61,7.61,0,1,1-10.09-4.41,7.26,7.26,0,0,1,3-.56Zm8.43,20.15a8,8,0,0,1,7.12,5A7.62,7.62,0,1,1,378.79,82a7.24,7.24,0,0,1,3-.56Zm8.43,20.15a8,8,0,0,1,7.12,5,7.62,7.62,0,1,1-10.09-4.42,7.35,7.35,0,0,1,3-.56Zm8.43,20.15a8,8,0,0,1,7.12,5,7.62,7.62,0,1,1-10.09-4.41,7.23,7.23,0,0,1,3-.56Zm-71.83,9.3-33.39,14,2.25,5.37c8.95-.07,17.85-.09,26.9-.09l-1.8-4.29,10.46-4.38Zm-36.87,15.43-9.33,3.91h11ZM54,158.64a17.23,17.23,0,0,0-17.27,17.27v49.85a50.06,50.06,0,0,1,0,85.3v49.88A17.23,17.23,0,0,0,54,378.21H421.17c0-.19,0-.38,0-.57a7.61,7.61,0,1,1,15.21,0c0,.19,0,.38,0,.57h62.52a17.23,17.23,0,0,0,17.27-17.27V311.09a50.06,50.06,0,0,1,0-85.3V175.91a17.23,17.23,0,0,0-17.27-17.27H436.33c0,.19,0,.38,0,.57a7.61,7.61,0,1,1-15.21,0c0-.19,0-.38,0-.57Zm-22.75,5.85-20.59,8.62a17.23,17.23,0,0,0-9.27,22.6Q14.83,227.85,28.24,260c.34-28,.22-56.09.23-84.13a25.15,25.15,0,0,1,2.74-11.42Zm397.54,8.59a8,8,0,1,1-7.61,8,7.79,7.79,0,0,1,7.61-8Zm0,21.84a8,8,0,1,1-7.61,8,7.79,7.79,0,0,1,7.61-8Zm0,21.84a8,8,0,1,1-7.61,8,7.8,7.8,0,0,1,7.61-8Zm-332.24,15H388.36v73.27H96.51Zm332.24,6.82a8,8,0,1,1-7.61,8,7.79,7.79,0,0,1,7.61-8Zm-213.09,2.2a27.74,27.74,0,0,0-17.94,6.37,27.5,27.5,0,0,0,0,42.48A27.57,27.57,0,0,0,215.54,296,33.94,33.94,0,0,0,228,293.37V277a15.28,15.28,0,0,1-3.93,3.55,15,15,0,0,1-7.87,2.2,14.21,14.21,0,0,1-9.26-3.2,14.85,14.85,0,0,1,0-22.18,14.21,14.21,0,0,1,9.26-3.2,15.05,15.05,0,0,1,7.87,2.2,15.43,15.43,0,0,1,3.93,3.55v-16.4a34.28,34.28,0,0,0-12.31-2.66ZM123,241.93v11.46h11.15v41.21h13.7V253.39h11.34V241.93Zm42.17,0v52.67h13.7V241.93Zm71.46,0v52.67h13.69V271.76l17.79,22.84h17.75L263,266.86,284,241.93h-16.9l-16.71,21.73V241.93Zm55.25,0v52.67h30V283.14H305.6v-9.37H321V262.31H305.6v-8.91h16.28V241.93Zm33.76,0v11.46h11.15v41.21h13.7V253.39h11.34V241.93Zm103.09,18.52a8,8,0,1,1-7.61,8,7.8,7.8,0,0,1,7.61-8Zm0,21.84a8,8,0,1,1-7.61,8,7.8,7.8,0,0,1,7.61-8Zm0,21.84a8,8,0,1,1-7.61,8,7.8,7.8,0,0,1,7.61-8Zm0,21.84a8,8,0,1,1-7.61,8,7.8,7.8,0,0,1,7.61-8Zm0,21.84a8,8,0,1,1-7.61,8,7.79,7.79,0,0,1,7.61-8Zm0,0"/></g></g></svg>