<?xml version="1.0" standalone="no"?>
<!DOCTYPE svg PUBLIC "-//W3C//DTD SVG 20010904//EN"
 "http://www.w3.org/TR/2001/REC-SVG-20010904/DTD/svg10.dtd">
<svg version="1.0" xmlns="http://www.w3.org/2000/svg"
 width="16.000000pt" height="16.000000pt" viewBox="0 0 16.000000 16.000000"
 preserveAspectRatio="xMidYMid meet">
<metadata>
Created by potrace 1.11, written by Peter Selinger 2001-2013
</metadata>
<g transform="translate(0.000000,16.000000) scale(0.001476,-0.001476)"
fill="#000000" stroke="none">
<path d="M0 5415 l0 -5415 5415 0 5415 0 0 5415 0 5415 -5415 0 -5415 0 0
-5415z m5720 4689 c0 -21 4 -25 18 -19 9 4 49 14 87 22 83 18 257 12 350 -12
105 -27 220 -90 293 -162 l66 -65 -23 -17 -24 -18 42 -7 c60 -9 157 -56 217
-103 157 -126 283 -408 328 -738 21 -156 44 -474 51 -724 l6 -214 -93 7 c-51
4 -100 9 -109 12 -21 6 -32 44 -17 61 14 17 -21 30 -134 51 -86 16 -106 26
-70 35 16 3 -15 14 -92 32 -24 5 -27 4 -18 -7 14 -18 -47 -190 -65 -183 -8 2
-13 -4 -13 -14 0 -18 3 -17 58 5 l57 23 0 51 c0 27 1 50 2 50 7 0 28 -50 32
-78 l6 -33 41 35 c46 39 81 56 103 48 10 -3 2 -16 -28 -42 -35 -29 -42 -41
-37 -58 7 -22 11 -22 182 -22 163 0 174 -1 174 -19 0 -14 -10 -20 -42 -25
l-43 -7 42 -40 c47 -44 48 -43 -47 -58 l-64 -11 -33 32 -33 32 -83 -27 c-46
-15 -86 -27 -90 -27 -3 0 -12 26 -18 59 l-12 59 -60 6 c-33 3 -74 6 -92 6 -30
0 -32 2 -44 56 l-13 56 36 54 c20 29 36 58 36 63 0 18 -50 41 -89 41 -28 0
-53 -10 -91 -35 -29 -19 -61 -35 -71 -35 -16 0 -19 -8 -19 -50 0 -51 -15 -70
-54 -70 -23 0 -21 56 1 64 14 6 12 10 -12 26 -54 35 -90 20 -61 -26 18 -26 16
-28 -36 -37 -22 -3 -27 0 -32 25 -4 22 -11 28 -30 28 -13 0 -31 3 -39 6 -9 3
-16 -3 -20 -15 -3 -13 -13 -21 -26 -21 -19 0 -20 3 -11 21 7 11 10 22 8 23 -2
2 -12 8 -23 14 -17 9 -14 11 25 21 60 15 152 59 146 70 -3 5 -19 14 -36 21
-35 14 -36 17 -11 47 23 28 99 39 195 29 52 -6 66 -11 71 -27 9 -26 25 -24 25
4 0 62 -69 93 -185 83 -70 -6 -71 -6 -81 21 -9 24 -23 32 -103 58 l-93 29 -18
-24 c-33 -43 -31 -58 6 -65 19 -3 34 -10 34 -16 0 -6 23 -7 63 -3 l62 7 -39
-43 c-37 -41 -38 -44 -19 -51 15 -6 20 -16 19 -39 -2 -52 -35 -61 -123 -35
-51 15 -148 89 -138 105 3 5 19 11 35 15 33 7 37 20 16 48 -13 17 -16 16 -40
-20 l-26 -38 0 43 c0 23 5 42 10 42 15 0 12 17 -7 36 -11 11 -14 19 -7 21 6 2
20 10 30 17 18 14 18 15 -8 40 -29 30 -26 22 -98 244 -29 90 -56 165 -60 167
-4 2 -36 7 -71 11 -85 8 -140 -7 -185 -53 -57 -57 -81 -123 -105 -295 -11 -84
-23 -156 -26 -160 -2 -5 -21 -8 -41 -8 -21 0 -87 -9 -147 -19 -61 -11 -131
-22 -157 -26 -57 -7 -61 -22 -17 -59 29 -25 70 -33 103 -20 27 10 18 23 -20
30 -65 12 -15 21 144 27 141 5 153 4 147 -11 -4 -9 -9 -25 -12 -34 -6 -21 -84
-54 -148 -62 -27 -4 -80 -3 -117 2 -71 9 -78 5 -78 -39 0 -18 -2 -19 -37 -4
-21 9 -52 29 -68 46 -28 27 -37 29 -103 29 -60 0 -72 -3 -72 -16 0 -14 -8 -16
-54 -10 -30 3 -61 9 -70 12 -10 4 -16 1 -16 -9 0 -9 29 -27 77 -47 129 -54
152 -60 230 -60 87 0 256 -18 286 -30 16 -6 3 -9 -46 -9 -159 -2 -317 -31
-317 -60 0 -5 23 -11 50 -13 28 -3 52 -7 54 -9 2 -2 1 -19 -1 -37 -5 -29 -9
-33 -27 -28 -11 4 -64 8 -116 11 l-95 5 54 -20 c65 -24 187 -50 235 -50 27 0
39 -7 56 -30 24 -34 68 -60 101 -60 18 0 20 -4 14 -27 -10 -43 -43 -113 -52
-112 -4 0 -21 28 -38 62 -29 60 -78 107 -111 107 -26 0 -14 -16 38 -48 29 -17
50 -32 47 -32 -3 0 -44 16 -92 35 -100 40 -127 44 -127 16 0 -12 -9 -23 -22
-27 -22 -7 -22 -8 7 -20 17 -7 42 -13 56 -14 25 0 27 -4 38 -76 6 -42 14 -80
17 -85 3 -5 47 -9 97 -9 105 0 169 -9 161 -21 -8 -14 61 -7 171 16 20 4 20 -2
22 -278 1 -155 6 -514 12 -797 6 -283 11 -687 11 -897 0 -334 -2 -383 -15
-383 -8 0 -15 -6 -15 -13 0 -8 10 -13 23 -13 21 1 22 -2 22 -89 0 -121 -6
-137 -63 -174 -27 -17 -52 -31 -56 -31 -4 0 -6 15 -4 32 2 27 9 35 36 43 28 8
32 14 32 42 0 26 -4 33 -20 33 -11 0 -20 -6 -20 -14 0 -9 -18 -16 -56 -21 -46
-5 -53 -9 -43 -21 14 -18 -6 -19 -47 -3 -24 9 -30 7 -45 -13 -18 -24 -18 -24
-32 22 -2 8 2 23 11 33 19 21 17 23 -32 33 l-39 7 6 -32 7 -31 -58 0 -58 0
-34 -70 c-18 -38 -35 -68 -38 -66 -7 7 28 129 47 167 l19 35 -29 11 c-36 14
-46 0 -55 -81 -5 -45 -10 -56 -25 -56 -11 0 -20 10 -24 31 -4 19 -16 34 -32
40 -36 13 -37 13 -62 -31 l-22 -40 23 -9 c13 -4 30 -11 38 -14 8 -3 -1 -6 -22
-6 -21 -1 -38 4 -41 12 -4 13 -37 -56 -37 -79 0 -10 14 -14 48 -14 30 0 67
-10 102 -26 30 -15 72 -32 94 -38 l38 -12 -58 -13 -58 -13 24 -18 c15 -12 20
-22 14 -31 -5 -9 1 -8 16 4 32 22 56 33 98 42 32 7 34 5 27 -15 -4 -14 -1 -28
11 -41 17 -19 16 -21 -15 -51 -31 -30 -32 -33 -14 -45 10 -8 28 -11 41 -8 17
4 22 1 22 -15 0 -25 1 -25 -95 0 -98 25 -170 27 -161 4 3 -9 6 -24 6 -35 0
-17 8 -19 103 -19 110 0 139 -8 112 -30 -8 -7 -15 -18 -15 -25 0 -23 77 -82
134 -104 63 -23 207 -51 268 -51 22 0 40 -5 43 -12 2 -7 13 -510 23 -1118 l20
-1106 25 -49 c30 -60 48 -77 107 -104 49 -22 132 -27 190 -11 50 14 107 64
134 119 l23 46 12 970 c6 534 14 1005 18 1047 l6 78 30 0 30 0 -24 -26 -24
-27 70 6 c70 7 157 28 185 46 23 15 -15 50 -64 58 l-41 7 50 8 c69 11 151 1
209 -25 32 -14 51 -18 53 -11 14 41 23 43 158 33 71 -5 132 -12 136 -17 11
-10 -18 -72 -33 -72 -7 0 -31 7 -53 15 -83 30 -245 7 -245 -35 0 -20 50 -25
315 -35 105 -3 131 -2 105 6 -65 19 -64 18 -49 35 37 44 165 78 341 89 l98 6
-6 -28 -6 -28 64 0 63 0 3 -630 c1 -346 -2 -880 -6 -1185 l-8 -555 -61 -120
c-33 -66 -81 -174 -107 -240 -66 -171 -64 -167 -141 -230 -38 -31 -99 -85
-135 -118 -36 -34 -115 -106 -177 -159 -111 -98 -111 -98 -224 -133 -63 -20
-170 -55 -239 -80 -149 -52 -216 -62 -525 -75 -126 -5 -264 -12 -307 -15 -75
-6 -81 -5 -311 70 -365 118 -511 199 -703 390 -295 294 -454 680 -530 1285
-24 197 -30 789 -11 1155 9 165 19 371 23 458 l7 157 30 0 c25 0 29 3 24 21
-4 16 0 23 15 27 l22 5 -22 8 c-26 10 -29 39 -4 39 9 0 79 -7 155 -17 l138
-16 37 36 c26 27 31 35 16 32 -10 -2 -63 -11 -116 -20 l-98 -15 -49 25 c-71
36 -130 43 -149 19 -13 -17 -14 -12 -6 46 4 36 6 94 4 130 -7 121 -5 254 7
385 9 107 9 137 -3 170 -7 22 -10 41 -5 43 49 17 52 62 3 62 l-28 0 -12 771
c-11 698 -11 772 3 783 14 10 14 24 6 101 -5 50 -13 180 -17 289 l-7 199 77
-6 c62 -6 76 -4 76 7 0 10 -22 18 -74 26 -89 15 -86 8 -86 201 0 115 2 129 19
141 11 8 21 28 23 46 l3 31 75 -34 c117 -53 118 -53 170 0 37 38 41 45 24 45
-31 0 -128 35 -226 82 l-88 41 0 46 c0 68 7 74 63 59 41 -10 54 -10 94 5 25 9
47 16 48 15 0 -2 6 -16 13 -31 9 -20 17 -27 30 -23 9 3 54 8 100 12 81 6 91
11 72 30 -6 6 25 8 83 6 51 -2 115 -2 142 0 l50 3 -70 17 c-38 9 -91 19 -117
23 l-48 6 16 25 c15 23 15 24 -3 24 -11 0 -41 -7 -67 -16 -34 -12 -45 -19 -37
-27 15 -15 14 -27 -4 -27 -8 0 -15 -7 -15 -15 0 -8 -4 -15 -9 -15 -5 0 -15 -2
-23 -5 -8 -3 -25 15 -42 45 -30 49 -30 50 -50 31 -21 -18 -59 -41 -70 -41 -3
0 -6 11 -6 24 0 21 10 30 60 52 60 27 60 27 60 70 l0 43 -41 -14 c-39 -14
-219 -22 -207 -9 4 3 28 12 55 19 l48 13 -62 1 -63 1 0 103 c0 281 59 632 146
865 76 205 189 397 298 507 66 66 323 242 470 321 l89 47 421 7 c231 4 469 7
529 8 l107 2 0 -26z m-524 -1649 c18 -15 18 -15 -5 -13 -14 2 -26 9 -29 16 -5
17 10 15 34 -3z m564 -170 c-27 -29 -37 -27 -20 4 6 12 18 21 27 21 13 0 12
-5 -7 -25z m-546 -1 c3 -9 6 -25 6 -35 0 -16 -6 -20 -27 -17 -28 3 -40 25 -29
54 7 19 42 18 50 -2z m-525 -21 c2 -2 -5 -3 -17 -3 -14 0 -22 6 -22 16 0 14 3
15 18 3 9 -7 19 -15 21 -16z m1161 -45 c31 -24 37 -34 29 -44 -9 -11 -18 -6
-44 21 -18 19 -40 35 -49 35 -10 0 -14 5 -11 10 11 18 35 11 75 -22z m650 -16
c0 -5 -9 -17 -20 -27 -19 -17 -21 -17 -40 0 -16 14 -17 20 -8 27 17 10 68 10
68 0z m-2685 -14 c116 3 114 0 -39 -57 l-106 -39 0 55 c0 52 1 54 23 46 12 -4
67 -7 122 -5z m1342 -49 c29 -7 50 -15 48 -19 -3 -4 -30 -11 -61 -15 -32 -4
-63 -9 -71 -12 -9 -4 -13 5 -13 32 0 34 2 37 23 31 12 -3 45 -11 74 -17z m676
-43 l-17 -31 -6 30 c-8 38 -5 44 20 38 19 -5 19 -6 3 -37z m-920 27 c-7 -2
-19 -2 -25 0 -7 3 -2 5 12 5 14 0 19 -2 13 -5z m-74 -25 c0 -7 -4 -22 -8 -32
-7 -18 -8 -18 -24 4 -13 19 -14 26 -4 32 18 12 37 10 36 -4z m193 -54 c6 -4
-8 -34 -29 -63 -2 -3 -16 7 -31 21 -15 14 -39 33 -54 43 -22 14 -26 21 -18 35
10 18 13 18 68 -7 31 -14 60 -27 64 -29z m1382 38 c-27 -14 -30 -20 -20 -35
15 -25 -6 -37 -68 -37 l-48 0 4 -60 4 -60 -20 37 c-24 43 -45 51 -141 52 -99
2 -113 17 -22 24 41 4 85 10 98 15 l23 9 -29 15 -29 16 54 11 c111 22 156 29
190 29 l35 1 -31 -17z m451 -22 c-3 -5 -10 -10 -16 -10 -5 0 -9 5 -9 10 0 6 7
10 16 10 8 0 12 -4 9 -10z m-385 -9 c0 -5 -6 -14 -14 -20 -10 -8 -16 -8 -25 3
-9 11 -9 15 1 19 21 9 38 8 38 -2z m-1325 -61 c14 -30 24 -40 42 -40 19 0 23
-5 23 -30 0 -29 -1 -30 -49 -30 -35 0 -51 4 -55 16 -13 34 -2 139 13 129 4 -2
16 -22 26 -45z m828 31 c4 -4 -11 -11 -35 -15 -24 -4 -53 -10 -66 -13 -21 -5
-22 -4 -10 22 11 25 15 27 57 21 25 -3 49 -10 54 -15z m-923 -56 c10 -12 10
-15 -4 -15 -9 0 -16 7 -16 15 0 8 2 15 4 15 2 0 9 -7 16 -15z m937 -7 c-3 -8
-6 -5 -6 6 -1 11 2 17 5 13 3 -3 4 -12 1 -19z m453 7 c10 -12 10 -15 -4 -15
-9 0 -16 7 -16 15 0 8 2 15 4 15 2 0 9 -7 16 -15z m219 -28 c-2 -2 -19 -7 -38
-11 l-35 -6 24 25 c21 23 26 24 39 10 8 -8 13 -16 10 -18z m-1673 -14 c-7 -7
-26 7 -26 19 0 6 6 6 15 -2 9 -7 13 -15 11 -17z m1409 17 c3 -5 1 -10 -4 -10
-6 0 -11 5 -11 10 0 6 2 10 4 10 3 0 8 -4 11 -10z m-32 -30 c4 -16 0 -20 -19
-20 -27 0 -28 3 -13 31 12 22 24 18 32 -11z m-1314 -82 c-16 -29 -23 -15 -14
29 7 35 8 36 16 15 6 -15 5 -31 -2 -44z m1491 13 c0 -12 -20 -25 -27 -18 -7 7
6 27 18 27 5 0 9 -4 9 -9z m245 -1 c3 -5 1 -10 -4 -10 -6 0 -11 5 -11 10 0 6
2 10 4 10 3 0 8 -4 11 -10z m125 -5 c10 -12 10 -15 -4 -15 -9 0 -16 7 -16 15
0 8 2 15 4 15 2 0 9 -7 16 -15z m-1772 -43 c12 -18 11 -22 -8 -32 -33 -17 -50
-5 -50 34 0 32 2 35 22 27 12 -4 28 -17 36 -29z m1522 18 c-33 -26 -48 -26
-25 0 10 11 25 20 34 20 12 0 9 -6 -9 -20z m-1890 -9 c14 -27 13 -31 -10 -31
-11 0 -20 4 -20 9 0 5 -3 16 -6 25 -9 23 23 20 36 -3z m98 -10 c3 -8 -1 -12
-9 -9 -7 2 -15 10 -17 17 -3 8 1 12 9 9 7 -2 15 -10 17 -17z m1542 -17 c0 -2
-16 -4 -35 -4 -19 0 -35 4 -35 8 0 4 16 6 35 4 19 -2 35 -6 35 -8z m520 -29
c0 -20 6 -37 13 -39 6 -3 26 -8 42 -13 23 -6 5 -9 -74 -13 l-104 -5 109 -44
c60 -24 114 -50 121 -58 7 -9 24 -13 45 -11 l33 3 -2 -290 c0 -159 -4 -322 -8
-361 l-6 -71 -654 -6 c-399 -4 -663 -3 -678 2 -24 9 -25 14 -31 123 -3 62 -8
231 -11 374 l-5 261 88 12 c116 15 175 15 166 0 -5 -9 24 -10 112 -5 65 4 130
7 144 7 14 0 113 -3 220 -6 150 -4 190 -2 173 7 -13 6 -23 14 -23 18 0 8 75
20 121 20 28 0 29 2 29 45 l0 45 73 1 c39 0 66 3 60 6 -26 10 -13 33 17 33 28
0 30 -3 30 -35z m-3055 -5 c3 -5 2 -10 -4 -10 -5 0 -13 5 -16 10 -3 6 -2 10 4
10 5 0 13 -4 16 -10z m2138 -40 c31 0 39 -4 47 -26 13 -33 13 -34 -5 -34 -21
0 -148 53 -157 65 -4 5 -8 18 -8 27 0 15 6 14 43 -7 24 -14 58 -25 80 -25z
m516 36 l24 -13 -34 -5 c-40 -7 -41 -6 -33 16 7 19 12 19 43 2z m-1619 -22
c14 -36 13 -44 -10 -44 -11 0 -26 12 -35 30 -20 38 -19 40 10 40 18 0 28 -7
35 -26z m230 6 c12 -8 11 -10 -7 -10 -13 0 -23 5 -23 10 0 13 11 13 30 0z
m619 1 c16 -10 8 -26 -20 -41 -17 -10 -19 -7 -19 20 0 30 13 37 39 21z m1261
-1 c12 -8 11 -10 -7 -10 -13 0 -23 5 -23 10 0 13 11 13 30 0z m-1134 -77 c-7
-7 -26 7 -26 19 0 6 6 6 15 -2 9 -7 13 -15 11 -17z m544 17 c8 -5 11 -12 8
-16 -10 -9 -38 3 -38 16 0 12 10 13 30 0z m70 -40 c12 -8 11 -10 -7 -10 -13 0
-23 5 -23 10 0 13 11 13 30 0z m-2800 -2550 c0 -16 -5 -30 -10 -30 -14 0 -24
26 -16 45 10 26 26 16 26 -15z m1375 -68 c-22 -5 -27 1 -19 23 7 17 8 17 21
-1 12 -17 12 -19 -2 -22z m155 -23 c0 -5 -4 -9 -10 -9 -5 0 -10 7 -10 16 0 8
5 12 10 9 6 -3 10 -10 10 -16z m-244 -63 c3 -8 4 -23 2 -33 -3 -14 -8 -11 -21
15 -15 28 -16 32 -2 32 9 0 18 -6 21 -14z m159 -18 c-8 -20 -20 -33 -32 -33
-13 0 -19 9 -21 33 -3 31 -2 32 32 32 l35 0 -14 -32z m-287 -10 c19 -19 14
-28 -18 -28 -16 0 -30 4 -30 8 0 9 21 32 30 32 3 0 11 -5 18 -12z m147 -58 c3
-5 1 -10 -4 -10 -6 0 -11 5 -11 10 0 6 2 10 4 10 3 0 8 -4 11 -10z m-30 -40
c3 -5 -1 -10 -9 -10 -9 0 -16 5 -16 10 0 6 4 10 9 10 6 0 13 -4 16 -10z m147
-76 c-7 -12 -11 -13 -17 -4 -4 7 -2 16 6 21 18 11 23 4 11 -17z m85 10 c-3 -3
-12 -4 -19 -1 -8 3 -5 6 6 6 11 1 17 -2 13 -5z m-258 -61 c-1 -70 -11 -98 -37
-101 -27 -4 -27 -3 0 52 20 43 21 46 5 64 -19 21 -13 32 15 32 15 0 18 -8 17
-47z m281 10 c0 -5 -9 -19 -19 -32 -24 -31 -55 -25 -59 12 -3 25 -1 27 37 27
23 0 41 -3 41 -7z m-116 -52 c3 -5 -1 -14 -9 -21 -13 -10 -15 -9 -15 9 0 21
14 28 24 12z m1441 -24 c9 -10 25 -22 36 -27 10 -6 19 -16 19 -22 0 -13 -200
-4 -265 12 -22 5 -70 10 -107 10 -67 0 -68 1 -68 26 l0 27 184 -5 c155 -4 187
-7 201 -21z m575 -17 c0 -16 0 -33 0 -37 1 -10 -52 -21 -119 -24 l-54 -3 -13
45 c-8 24 -14 45 -14 47 0 1 45 2 100 2 l100 0 0 -30z m-1017 -37 c-7 -2 -21
-2 -30 0 -10 3 -4 5 12 5 17 0 24 -2 18 -5z m-928 -13 c-3 -5 -12 -10 -18 -10
-7 0 -6 4 3 10 19 12 23 12 15 0z m1390 -30 c3 -5 1 -10 -4 -10 -6 0 -11 5
-11 10 0 6 2 10 4 10 3 0 8 -4 11 -10z m-102 -17 c-7 -2 -19 -2 -25 0 -7 3 -2
5 12 5 14 0 19 -2 13 -5z m172 -17 c-20 -14 -35 -12 -35 5 0 5 12 9 27 9 26 0
26 -1 8 -14z m-95 -52 c0 -2 -9 -4 -20 -4 -11 0 -20 4 -20 9 0 5 9 7 20 4 11
-3 20 -7 20 -9z m-383 -26 c-3 -8 -6 -5 -6 6 -1 11 2 17 5 13 3 -3 4 -12 1
-19z m208 -8 c28 -7 28 -8 -12 -9 -23 0 -45 4 -48 9 -7 11 16 11 60 0z m174 1
c11 -7 9 -11 -8 -20 -18 -10 -21 -9 -21 9 0 22 7 25 29 11z m581 -31 c0 -5
-11 -10 -25 -10 -14 0 -25 5 -25 10 0 6 11 10 25 10 14 0 25 -4 25 -10z m-661
-26 c2 -2 -8 -4 -22 -4 -18 0 -27 5 -27 15 0 13 4 14 23 4 12 -6 24 -13 26
-15z m661 -24 c9 -16 8 -20 -5 -20 -8 0 -15 9 -15 20 0 11 2 20 5 20 2 0 9 -9
15 -20z m-1310 -15 c0 -3 -9 -5 -20 -5 -11 0 -20 7 -20 15 0 13 4 14 20 5 11
-6 20 -13 20 -15z"/>
<path d="M5893 10073 c9 -2 25 -2 35 0 9 3 1 5 -18 5 -19 0 -27 -2 -17 -5z"/>
<path d="M5320 10050 c0 -5 14 -10 30 -10 17 0 30 5 30 10 0 6 -13 10 -30 10
-16 0 -30 -4 -30 -10z"/>
<path d="M6025 10040 c3 -5 15 -10 26 -10 11 0 17 5 14 10 -3 6 -15 10 -26 10
-11 0 -17 -4 -14 -10z"/>
<path d="M5395 9990 c3 -5 8 -10 11 -10 2 0 4 5 4 10 0 6 -5 10 -11 10 -5 0
-7 -4 -4 -10z"/>
<path d="M5440 9990 c0 -5 18 -10 40 -10 22 0 40 5 40 10 0 6 -18 10 -40 10
-22 0 -40 -4 -40 -10z"/>
<path d="M6195 9990 c3 -5 8 -10 11 -10 2 0 4 5 4 10 0 6 -5 10 -11 10 -5 0
-7 -4 -4 -10z"/>
<path d="M4730 9700 c0 -5 11 -10 25 -10 14 0 25 5 25 10 0 6 -11 10 -25 10
-14 0 -25 -4 -25 -10z"/>
<path d="M6537 9703 c-12 -11 -8 -23 8 -23 8 0 15 7 15 15 0 16 -12 20 -23 8z"/>
<path d="M6630 9676 c0 -2 7 -6 15 -10 8 -3 15 -1 15 4 0 6 -7 10 -15 10 -8 0
-15 -2 -15 -4z"/>
<path d="M6602 9571 c-46 -38 -42 -54 11 -46 64 11 69 16 43 46 l-23 26 -31
-26z"/>
<path d="M6745 9570 c3 -5 18 -10 33 -9 24 0 25 1 7 9 -28 12 -47 12 -40 0z"/>
<path d="M6510 9500 c0 -19 3 -21 12 -12 9 9 9 15 0 24 -9 9 -12 7 -12 -12z"/>
<path d="M5885 8950 c3 -5 8 -10 11 -10 2 0 4 5 4 10 0 6 -5 10 -11 10 -5 0
-7 -4 -4 -10z"/>
<path d="M4491 8486 c-9 -11 -6 -12 14 -8 14 2 22 8 19 13 -8 13 -20 11 -33
-5z"/>
<path d="M4930 8490 c0 -5 16 -10 35 -10 19 0 35 5 35 10 0 6 -16 10 -35 10
-19 0 -35 -4 -35 -10z"/>
<path d="M4674 8461 c15 -16 22 -17 58 -8 34 8 38 12 22 18 -10 4 -37 8 -58 8
-38 1 -38 0 -22 -18z"/>
<path d="M3975 8460 c3 -5 8 -10 11 -10 2 0 4 5 4 10 0 6 -5 10 -11 10 -5 0
-7 -4 -4 -10z"/>
<path d="M4190 8424 c-142 -31 -170 -42 -170 -69 l0 -25 125 0 c104 0 125 2
125 15 0 10 -11 15 -35 15 -31 0 -35 3 -35 25 0 23 4 25 40 25 29 0 40 4 40
15 0 18 -4 17 -90 -1z"/>
<path d="M4670 8411 c0 -29 0 -29 40 -19 47 12 47 12 -3 33 l-37 15 0 -29z"/>
<path d="M4580 8410 c0 -22 16 -26 40 -10 13 9 13 11 0 20 -24 16 -40 12 -40
-10z"/>
<path d="M4380 8373 l0 -28 19 24 c16 21 24 23 62 18 24 -4 54 -10 67 -13 16
-5 22 -2 22 10 0 13 -13 16 -85 16 l-85 0 0 -27z"/>
<path d="M6206 8319 c-14 -11 -33 -34 -42 -50 l-15 -30 26 17 c22 14 31 15 46
6 16 -10 19 -9 19 3 0 9 7 29 15 45 15 28 14 30 -3 30 -11 0 -31 -9 -46 -21z"/>
<path d="M5930 8310 c0 -5 4 -10 9 -10 6 0 13 5 16 10 3 6 -1 10 -9 10 -9 0
-16 -4 -16 -10z"/>
<path d="M6418 8313 c6 -2 18 -2 25 0 6 3 1 5 -13 5 -14 0 -19 -2 -12 -5z"/>
<path d="M6305 8240 c3 -5 10 -10 16 -10 5 0 9 5 9 10 0 6 -7 10 -16 10 -8 0
-12 -4 -9 -10z"/>
<path d="M4299 8183 l-64 -48 60 -3 c33 -1 94 1 135 5 l75 8 -62 25 c-44 17
-63 30 -63 42 0 27 -12 23 -81 -29z"/>
<path d="M4460 8205 c-8 -9 -8 -15 -2 -15 12 0 26 19 19 26 -2 2 -10 -2 -17
-11z"/>
<path d="M4245 7970 c3 -5 8 -10 11 -10 2 0 4 5 4 10 0 6 -5 10 -11 10 -5 0
-7 -4 -4 -10z"/>
<path d="M3761 7924 c24 -26 36 -29 59 -14 19 12 13 17 -39 29 l-43 9 23 -24z"/>
<path d="M3903 7929 c-39 -25 -41 -29 -9 -29 24 0 56 23 56 41 0 14 -12 11
-47 -12z"/>
<path d="M3975 7942 c-38 -26 -74 -112 -47 -112 31 0 112 81 112 113 0 9 -52
9 -65 -1z"/>
<path d="M6965 7940 c3 -5 8 -10 11 -10 2 0 4 5 4 10 0 6 -5 10 -11 10 -5 0
-7 -4 -4 -10z"/>
<path d="M4240 7834 c0 -14 3 -14 15 -4 8 7 15 14 15 16 0 2 -7 4 -15 4 -8 0
-15 -7 -15 -16z"/>
<path d="M4527 7781 c-10 -3 -31 -31 -48 -60 -23 -43 -26 -57 -17 -68 10 -12
14 -10 25 11 19 37 61 45 85 17 l18 -23 57 20 58 19 -40 8 c-22 4 -54 12 -72
18 -28 9 -31 14 -26 39 6 29 -3 34 -40 19z"/>
<path d="M3921 7684 c0 -11 3 -14 6 -6 3 7 2 16 -1 19 -3 4 -6 -2 -5 -13z"/>
<path d="M3780 7660 c0 -5 18 -10 40 -10 22 0 40 5 40 10 0 6 -18 10 -40 10
-22 0 -40 -4 -40 -10z"/>
<path d="M4730 7636 c0 -2 7 -9 15 -16 12 -10 15 -10 15 4 0 9 -7 16 -15 16
-8 0 -15 -2 -15 -4z"/>
<path d="M4000 7530 c0 -5 11 -10 25 -10 14 0 25 5 25 10 0 6 -11 10 -25 10
-14 0 -25 -4 -25 -10z"/>
<path d="M4070 7501 c0 -17 18 -21 24 -6 3 9 0 15 -9 15 -8 0 -15 -4 -15 -9z"/>
<path d="M4200 7490 c0 -20 1 -20 25 -4 14 9 25 18 25 20 0 2 -11 4 -25 4 -18
0 -25 -5 -25 -20z"/>
<path d="M4322 7501 c-10 -6 -10 -10 3 -21 12 -10 24 -10 60 0 25 7 45 17 45
21 0 11 -91 11 -108 0z"/>
<path d="M5125 7480 c3 -5 8 -10 11 -10 2 0 4 5 4 10 0 6 -5 10 -11 10 -5 0
-7 -4 -4 -10z"/>
<path d="M4773 7448 c-42 -8 -53 -13 -53 -29 0 -17 8 -19 65 -19 l65 0 0 30
c0 33 1 32 -77 18z"/>
<path d="M4263 7393 c15 -2 39 -2 55 0 15 2 2 4 -28 4 -30 0 -43 -2 -27 -4z"/>
<path d="M4410 7370 c0 -5 23 -10 50 -10 28 0 50 5 50 10 0 6 -22 10 -50 10
-27 0 -50 -4 -50 -10z"/>
<path d="M3875 7350 c3 -5 8 -10 11 -10 2 0 4 5 4 10 0 6 -5 10 -11 10 -5 0
-7 -4 -4 -10z"/>
<path d="M3890 7311 c-32 -4 -46 -11 -48 -23 -3 -15 5 -18 52 -18 53 0 56 1
56 25 0 14 -3 24 -7 23 -5 0 -28 -4 -53 -7z"/>
<path d="M3885 7241 c-16 -6 -10 -11 30 -24 51 -18 73 -12 62 17 -7 17 -56 21
-92 7z"/>
<path d="M4380 7230 c0 -5 23 -10 50 -10 28 0 50 5 50 10 0 6 -22 10 -50 10
-27 0 -50 -4 -50 -10z"/>
<path d="M4110 7184 c-14 -2 -74 -11 -133 -21 l-108 -16 61 -33 c33 -18 67
-37 74 -43 10 -9 32 -3 87 24 41 19 103 42 139 51 36 9 67 18 70 21 19 18
-105 29 -190 17z"/>
<path d="M3730 7170 c-13 -8 -12 -10 3 -10 9 0 17 5 17 10 0 12 -1 12 -20 0z"/>
<path d="M4448 7167 c-54 -6 -98 -13 -98 -16 0 -3 22 -18 48 -33 44 -24 52
-25 96 -15 36 8 51 17 62 38 17 34 17 39 2 37 -7 0 -57 -6 -110 -11z m50 -33
c-9 -9 -24 -14 -32 -11 -27 11 -17 27 16 27 30 0 31 -1 16 -16z"/>
<path d="M4670 7140 c0 -5 9 -10 20 -10 11 0 20 5 20 10 0 6 -9 10 -20 10 -11
0 -20 -4 -20 -10z"/>
<path d="M4375 7049 l30 -21 -45 7 c-143 20 -130 21 -130 -14 0 -24 4 -31 20
-31 11 0 43 -9 72 -20 68 -26 98 -26 98 -2 0 22 25 47 58 56 12 4 22 13 22 21
0 17 -32 25 -100 25 l-55 0 30 -21z"/>
<path d="M4795 7050 c3 -5 8 -10 11 -10 2 0 4 5 4 10 0 6 -5 10 -11 10 -5 0
-7 -4 -4 -10z"/>
<path d="M3820 7016 c0 -20 5 -26 21 -26 15 0 20 5 17 22 -5 34 -38 37 -38 4z"/>
<path d="M4077 6999 c-40 -9 -97 -36 -97 -45 0 -14 146 25 161 42 14 16 -4 17
-64 3z"/>
<path d="M4510 6965 c0 -11 12 -15 48 -14 l47 1 -30 13 c-40 19 -65 18 -65 0z"/>
<path d="M4190 6944 c0 -2 18 -11 40 -20 22 -9 40 -20 40 -24 0 -4 -19 -11
-42 -16 l-43 -8 62 -5 c34 -3 68 -12 75 -18 14 -15 54 -17 62 -4 10 16 -34 59
-77 75 -43 15 -117 28 -117 20z"/>
<path d="M4775 5300 c3 -5 8 -10 11 -10 2 0 4 5 4 10 0 6 -5 10 -11 10 -5 0
-7 -4 -4 -10z"/>
<path d="M4855 5254 c-9 -15 -12 -23 -6 -20 11 7 35 46 28 46 -3 0 -12 -12
-22 -26z"/>
<path d="M4595 5260 c3 -5 8 -10 11 -10 2 0 4 5 4 10 0 6 -5 10 -11 10 -5 0
-7 -4 -4 -10z"/>
<path d="M4960 5235 c0 -17 2 -18 24 -9 23 9 20 24 -4 24 -11 0 -20 -7 -20
-15z"/>
<path d="M3800 5145 c0 -24 36 -81 56 -89 9 -3 29 4 46 15 25 18 43 22 102 20
l71 -1 -23 20 c-31 25 -79 38 -174 46 -71 6 -78 5 -78 -11z m77 -31 c-3 -3
-12 -4 -19 -1 -8 3 -5 6 6 6 11 1 17 -2 13 -5z"/>
<path d="M4117 5143 c-7 -7 -10 -133 -3 -133 23 0 36 17 36 44 0 18 5 37 12
44 9 9 7 16 -7 32 -19 21 -28 24 -38 13z"/>
<path d="M4287 5133 c-13 -13 -7 -21 13 -16 11 3 17 9 14 14 -6 11 -18 12 -27
2z"/>
<path d="M4440 5120 c0 -5 7 -10 15 -10 8 0 15 5 15 10 0 6 -7 10 -15 10 -8 0
-15 -4 -15 -10z"/>
<path d="M3970 5020 c0 -5 11 -10 25 -10 14 0 25 5 25 10 0 6 -11 10 -25 10
-14 0 -25 -4 -25 -10z"/>
<path d="M3838 5013 c-39 -10 -8 -43 39 -43 33 0 33 0 17 25 -16 25 -23 27
-56 18z"/>
<path d="M3790 4656 c0 -25 2 -26 60 -26 45 0 60 4 60 14 0 8 -15 17 -37 21
-21 3 -48 9 -60 12 -19 4 -23 1 -23 -21z"/>
<path d="M3980 4612 c-51 -28 -50 -42 4 -42 44 0 46 1 46 30 0 35 -4 36 -50
12z"/>
<path d="M3813 4483 c-16 -3 -23 -11 -23 -29 0 -28 1 -28 70 -13 52 11 58 17
38 37 -12 12 -41 13 -85 5z"/>
<path d="M4420 4250 c0 -5 4 -10 9 -10 6 0 13 5 16 10 3 6 -1 10 -9 10 -9 0
-16 -4 -16 -10z"/>
<path d="M3870 4201 l0 -29 63 25 c34 14 64 27 66 29 2 2 -26 4 -62 4 l-67 0
0 -29z"/>
<path d="M6935 4201 l-40 -6 38 -22 c21 -13 44 -23 50 -23 20 0 57 30 57 46 0
15 -30 16 -105 5z"/>
<path d="M3860 4126 c0 -2 7 -6 15 -10 8 -3 15 -1 15 4 0 6 -7 10 -15 10 -8 0
-15 -2 -15 -4z"/>
<path d="M4670 2760 c0 -5 9 -10 20 -10 11 0 20 5 20 10 0 6 -9 10 -20 10 -11
0 -20 -4 -20 -10z"/>
<path d="M4145 2560 c3 -5 8 -10 11 -10 2 0 4 5 4 10 0 6 -5 10 -11 10 -5 0
-7 -4 -4 -10z"/>
<path d="M4393 1329 c11 -7 23 -7 35 0 14 9 11 10 -18 10 -29 0 -32 -1 -17
-10z"/>
<path d="M5855 1310 c3 -5 8 -10 11 -10 2 0 4 5 4 10 0 6 -5 10 -11 10 -5 0
-7 -4 -4 -10z"/>
<path d="M6443 1223 c9 -2 23 -2 30 0 6 3 -1 5 -18 5 -16 0 -22 -2 -12 -5z"/>
<path d="M4215 1210 c3 -5 10 -10 16 -10 5 0 9 5 9 10 0 6 -7 10 -16 10 -8 0
-12 -4 -9 -10z"/>
<path d="M4780 1163 c0 -29 2 -29 19 5 10 18 9 22 -4 22 -10 0 -15 -9 -15 -27z"/>
<path d="M4345 1170 c3 -5 8 -10 11 -10 2 0 4 5 4 10 0 6 -5 10 -11 10 -5 0
-7 -4 -4 -10z"/>
<path d="M4650 1161 c0 -17 6 -21 28 -20 40 1 78 14 66 22 -6 3 -30 9 -52 13
-38 6 -42 5 -42 -15z"/>
<path d="M5010 1090 c31 -24 29 -24 65 0 l30 20 -60 0 -60 0 25 -20z"/>
<path d="M4967 1063 c-9 -9 -9 -43 1 -43 21 1 30 16 18 32 -7 10 -16 15 -19
11z"/>
<path d="M4786 1050 c7 -7 19 -7 35 -1 23 9 22 10 -10 10 -24 1 -32 -2 -25 -9z"/>
<path d="M5355 1050 c-3 -5 -1 -10 4 -10 6 0 11 5 11 10 0 6 -2 10 -4 10 -3 0
-8 -4 -11 -10z"/>
<path d="M4455 1030 c3 -5 8 -10 11 -10 2 0 4 5 4 10 0 6 -5 10 -11 10 -5 0
-7 -4 -4 -10z"/>
<path d="M4590 962 c0 -10 6 -26 13 -35 11 -15 18 -15 61 -4 l49 13 -57 22
c-69 26 -66 26 -66 4z"/>
<path d="M4841 941 c8 -22 15 -28 30 -24 25 7 24 18 -3 37 -32 23 -38 20 -27
-13z"/>
<path d="M5270 928 c0 -9 16 -12 55 -10 67 5 63 22 -6 22 -32 0 -49 -4 -49
-12z"/>
<path d="M4748 894 c25 -17 53 -16 60 4 2 8 -9 12 -39 12 -42 0 -43 0 -21 -16z"/>
<path d="M5630 901 c0 -6 5 -13 10 -16 6 -3 10 1 10 9 0 9 -4 16 -10 16 -5 0
-10 -4 -10 -9z"/>
<path d="M5490 890 c0 -5 4 -10 9 -10 6 0 13 5 16 10 3 6 -1 10 -9 10 -9 0
-16 -4 -16 -10z"/>
<path d="M5090 836 c0 -19 14 -28 34 -20 15 6 15 8 -1 20 -23 17 -33 17 -33 0z"/>
<path d="M5055 811 c-3 -5 -1 -12 5 -16 5 -3 10 1 10 9 0 18 -6 21 -15 7z"/>
<path d="M5210 804 c0 -13 7 -15 31 -10 17 3 37 6 43 6 24 0 -21 20 -46 20
-19 0 -28 -5 -28 -16z"/>
<path d="M6803 7617 c-31 -7 -43 -15 -43 -27 0 -12 6 -17 18 -15 9 2 34 7 55
10 28 4 37 11 37 25 0 22 -5 22 -67 7z"/>
<path d="M6683 7513 c9 -2 23 -2 30 0 6 3 -1 5 -18 5 -16 0 -22 -2 -12 -5z"/>
<path d="M6753 7513 c9 -2 25 -2 35 0 9 3 1 5 -18 5 -19 0 -27 -2 -17 -5z"/>
<path d="M7022 7473 c-20 -8 6 -33 34 -33 17 0 24 6 24 20 0 20 -26 26 -58 13z"/>
</g>
</svg>
